#ifndef _enemySCORINGICON_XBM
#define _enemySCORINGICON_XBM

#define enemyScoringIcon_width 17
#define enemyScoringIcon_height 7
static unsigned char enemyScoringIcon_bits[] = {
   0x80, 0x03, 0x00, 0x40, 0x04, 0x00, 0xf0, 0x1f, 0x00, 0x0c, 0x60, 0x00,
   0xa3, 0x8a, 0x01, 0x0c, 0x60, 0x00, 0xf0, 0x1f, 0x00};

#endif
