#ifndef _ENEMYSCORINGICON_XBM
#define _ENEMYSCORINGICON_XBM

#define ENEMYScoringIcon_width 31
#define ENEMYScoringIcon_height 11
static unsigned char ENEMYScoringIcon_bits[] = {
   0x00, 0xe0, 0x03, 0x00, 0x00, 0x10, 0x04, 0x00, 0x00, 0x08, 0x08, 0x00,
   0x00, 0xff, 0x7f, 0x00, 0xe0, 0x00, 0x80, 0x03, 0x1c, 0xaa, 0x2a, 0x1c,
   0x03, 0x00, 0x00, 0x60, 0x3c, 0x00, 0x00, 0x1e, 0xc0, 0x03, 0xe0, 0x01,
   0x00, 0xfc, 0x1f, 0x00, 0x00, 0x00, 0x00, 0x00};

#endif
