#ifndef _FORTYTWO_XBM
#define _FORTYTWO_XBM

#define fortytwo_width 7
#define fortytwo_height 21
static unsigned char fortytwo_bits[] = {
  0x80,0x90,0x98,0x94,0x92,0xBE,0x90,0x90,0x80,0x9C,0xA2,0xA0,
  0x90,0x8C,0x82,0xBE,0x80,0x80,0x80,0x80,0x80
};

#endif
