#ifndef _rockSCORINGICON_XBM
#define _rockSCORINGICON_XBM

#define rockScoringIcon_width 14
#define rockScoringIcon_height 14
static unsigned char rockScoringIcon_bits[] = {
   0xe0, 0x00, 0x10, 0x03, 0x08, 0x0c, 0x04, 0x10, 0x04, 0x10, 0x02, 0x20,
   0x02, 0x20, 0x02, 0x20, 0x04, 0x20, 0x04, 0x10, 0x02, 0x10, 0x02, 0x18,
   0xc4, 0x07, 0x38, 0x00};

#endif
