#ifndef _STARDESTROYERDECOR_XBM
#define _STARDESTROYERDECOR_XBM

#define starDestroyerDecor_width 7
#define starDestroyerDecor_height 21
static unsigned char starDestroyerDecor_bits[] = {
   0x1c, 0x08, 0x08, 0x08, 0x1c, 0x00, 0x1e, 0x22, 0x1e, 0x22, 0x1e, 0x41,
   0x63, 0x55, 0x49, 0x41, 0x00, 0x00, 0x00, 0x00, 0x00};

#endif
