#ifndef _NCC1701DTHRUSTDECOR_XBM
#define _NCC1701DTHRUSTDECOR_XBM

#define NCC1701DThrustDecor_width 17
#define NCC1701DThrustDecor_height 13
static unsigned char NCC1701DThrustDecor_bits[] = {
   0x00, 0x00, 0x00, 0x00, 0x00, 0x00, 0x00, 0x00, 0x00, 0x00, 0x00, 0x00,
   0x00, 0x00, 0x00, 0x00, 0x00, 0x00, 0x00, 0x00, 0x00, 0x00, 0x00, 0x00,
   0x00, 0x00, 0x00, 0x00, 0x00, 0x00, 0x00, 0x00, 0x00, 0x03, 0x80, 0x01,
   0x03, 0x80, 0x01};

#endif
