#ifndef _ROCKSCORINGICON_XBM
#define _ROCKSCORINGICON_XBM

#define ROCKScoringIcon_width 40
#define ROCKScoringIcon_height 40
static unsigned char ROCKScoringIcon_bits[] = {
   0x00, 0xc0, 0x01, 0x00, 0x00, 0x00, 0x30, 0x1e, 0x00, 0x00, 0x00, 0x08,
   0xe0, 0x01, 0x00, 0x00, 0x06, 0x00, 0x0e, 0x00, 0x00, 0x01, 0x00, 0xf0,
   0x00, 0x80, 0x00, 0x00, 0x00, 0x03, 0x40, 0x00, 0x00, 0x00, 0x02, 0x20,
   0x00, 0x00, 0x00, 0x04, 0x10, 0x00, 0x00, 0x00, 0x04, 0x08, 0x00, 0x00,
   0x00, 0x08, 0x08, 0x00, 0x00, 0x00, 0x08, 0x08, 0x00, 0x00, 0x00, 0x10,
   0x04, 0x00, 0x00, 0x00, 0x10, 0x04, 0x00, 0x00, 0x00, 0x10, 0x04, 0x00,
   0x00, 0x00, 0x10, 0x04, 0x00, 0x00, 0x00, 0x20, 0x02, 0x00, 0x00, 0x00,
   0x20, 0x02, 0x00, 0x00, 0x00, 0x20, 0x02, 0x00, 0x00, 0x00, 0x40, 0x02,
   0x00, 0x00, 0x00, 0x40, 0x01, 0x00, 0x00, 0x00, 0x40, 0x01, 0x00, 0x00,
   0x00, 0x40, 0x01, 0x00, 0x00, 0x00, 0x40, 0x02, 0x00, 0x00, 0x00, 0x20,
   0x04, 0x00, 0x00, 0x00, 0x18, 0x08, 0x00, 0x00, 0x00, 0x06, 0x08, 0x00,
   0x00, 0x00, 0x01, 0x10, 0x00, 0x00, 0x00, 0x01, 0x20, 0x00, 0x00, 0x00,
   0x01, 0x40, 0x00, 0x00, 0x00, 0x01, 0x40, 0x00, 0x00, 0x00, 0x02, 0x80,
   0x00, 0x00, 0x00, 0x02, 0x80, 0x00, 0x00, 0x00, 0x02, 0x00, 0x01, 0x00,
   0x80, 0x03, 0x00, 0x01, 0x00, 0x40, 0x00, 0x00, 0x02, 0x00, 0x20, 0x00,
   0x00, 0x0e, 0x00, 0x18, 0x00, 0x00, 0xf0, 0x01, 0x04, 0x00, 0x00, 0x00,
   0x1e, 0x03, 0x00, 0x00, 0x00, 0xe0, 0x00, 0x00};

#endif
